<?xml version="1.0" encoding="utf-8"?><svg xmlns="http://www.w3.org/2000/svg" xmlns:xlink="http://www.w3.org/1999/xlink" width="1366" height="1084" preserveAspectRatio="xMidYMid" viewBox="0 0 1366 1084" style="z-index:1;margin-right:-2px;display:block;background-color:rgb(28, 28, 28);animation-play-state:paused" ><g transform="translate(683,542) scale(1,1) translate(-683,-542)" style="transform:matrix(1, 0, 0, 1, 0, 0);animation-play-state:paused" ><g transform="matrix(1,0,0,1,496.842041015625,516.4876098632812)" style="transform:matrix(1, 0, 0, 1, 496.842, 516.488);animation-play-state:paused" ><path d="M84.717,33.597c0.791-2.503,1.186-5.138,1.186-7.773C85.903,11.594,74.308,0,60.079,0 c-9.881,0-18.445,5.534-22.793,13.702c-1.581-0.527-3.426-0.791-5.138-0.791c-9.486,0-17.128,7.642-17.128,17.128 c0,1.186,0.132,2.372,0.395,3.426C6.719,34.783,0,42.424,0,51.515C0,61.66,8.169,69.829,18.314,69.829h63.373 C91.831,69.829,100,61.66,100,51.515C99.868,42.556,93.281,35.046,84.717,33.597z" fill="#55125a" transform="scale(0.635)" style="transform:matrix(0.635, 0, 0, 0.635, 0, 0);animation-play-state:paused" ></path></g>
<g transform="matrix(1,0,0,1,307.76348876953125,50.41799545288086)" style="transform:matrix(1, 0, 0, 1, 307.763, 50.418);animation-play-state:paused" ><path d="M84.717,33.597c0.791-2.503,1.186-5.138,1.186-7.773C85.903,11.594,74.308,0,60.079,0 c-9.881,0-18.445,5.534-22.793,13.702c-1.581-0.527-3.426-0.791-5.138-0.791c-9.486,0-17.128,7.642-17.128,17.128 c0,1.186,0.132,2.372,0.395,3.426C6.719,34.783,0,42.424,0,51.515C0,61.66,8.169,69.829,18.314,69.829h63.373 C91.831,69.829,100,61.66,100,51.515C99.868,42.556,93.281,35.046,84.717,33.597z" fill="#55125a" transform="scale(0.635)" style="transform:matrix(0.635, 0, 0, 0.635, 0, 0);animation-play-state:paused" ></path></g>
<g transform="matrix(1,0,0,1,1327.915283203125,968.5568237304688)" style="transform:matrix(1, 0, 0, 1, 1327.92, 968.557);animation-play-state:paused" ><path d="M84.717,33.597c0.791-2.503,1.186-5.138,1.186-7.773C85.903,11.594,74.308,0,60.079,0 c-9.881,0-18.445,5.534-22.793,13.702c-1.581-0.527-3.426-0.791-5.138-0.791c-9.486,0-17.128,7.642-17.128,17.128 c0,1.186,0.132,2.372,0.395,3.426C6.719,34.783,0,42.424,0,51.515C0,61.66,8.169,69.829,18.314,69.829h63.373 C91.831,69.829,100,61.66,100,51.515C99.868,42.556,93.281,35.046,84.717,33.597z" fill="#55125a" transform="scale(0.635)" style="transform:matrix(0.635, 0, 0, 0.635, 0, 0);animation-play-state:paused" ></path></g>
<g transform="matrix(1,0,0,1,219.91085815429688,160.9863739013672)" style="transform:matrix(1, 0, 0, 1, 219.911, 160.986);animation-play-state:paused" ><path d="M84.717,33.597c0.791-2.503,1.186-5.138,1.186-7.773C85.903,11.594,74.308,0,60.079,0 c-9.881,0-18.445,5.534-22.793,13.702c-1.581-0.527-3.426-0.791-5.138-0.791c-9.486,0-17.128,7.642-17.128,17.128 c0,1.186,0.132,2.372,0.395,3.426C6.719,34.783,0,42.424,0,51.515C0,61.66,8.169,69.829,18.314,69.829h63.373 C91.831,69.829,100,61.66,100,51.515C99.868,42.556,93.281,35.046,84.717,33.597z" fill="#581656" transform="scale(1.0899999999999999)" style="transform:matrix(1.09, 0, 0, 1.09, 0, 0);animation-play-state:paused" ></path></g>
<g transform="matrix(1,0,0,1,1166.054931640625,465.03778076171875)" style="transform:matrix(1, 0, 0, 1, 1166.05, 465.038);animation-play-state:paused" ><path d="M84.717,33.597c0.791-2.503,1.186-5.138,1.186-7.773C85.903,11.594,74.308,0,60.079,0 c-9.881,0-18.445,5.534-22.793,13.702c-1.581-0.527-3.426-0.791-5.138-0.791c-9.486,0-17.128,7.642-17.128,17.128 c0,1.186,0.132,2.372,0.395,3.426C6.719,34.783,0,42.424,0,51.515C0,61.66,8.169,69.829,18.314,69.829h63.373 C91.831,69.829,100,61.66,100,51.515C99.868,42.556,93.281,35.046,84.717,33.597z" fill="#581656" transform="scale(1.0899999999999999)" style="transform:matrix(1.09, 0, 0, 1.09, 0, 0);animation-play-state:paused" ></path></g>
<g transform="matrix(1,0,0,1,395.6343994140625,697.5704956054688)" style="transform:matrix(1, 0, 0, 1, 395.634, 697.57);animation-play-state:paused" ><path d="M84.717,33.597c0.791-2.503,1.186-5.138,1.186-7.773C85.903,11.594,74.308,0,60.079,0 c-9.881,0-18.445,5.534-22.793,13.702c-1.581-0.527-3.426-0.791-5.138-0.791c-9.486,0-17.128,7.642-17.128,17.128 c0,1.186,0.132,2.372,0.395,3.426C6.719,34.783,0,42.424,0,51.515C0,61.66,8.169,69.829,18.314,69.829h63.373 C91.831,69.829,100,61.66,100,51.515C99.868,42.556,93.281,35.046,84.717,33.597z" fill="#581656" transform="scale(1.0899999999999999)" style="transform:matrix(1.09, 0, 0, 1.09, 0, 0);animation-play-state:paused" ></path></g>
<g transform="matrix(1,0,0,1,167.14337158203125,226.95196533203125)" style="transform:matrix(1, 0, 0, 1, 167.143, 226.952);animation-play-state:paused" ><path d="M84.717,33.597c0.791-2.503,1.186-5.138,1.186-7.773C85.903,11.594,74.308,0,60.079,0 c-9.881,0-18.445,5.534-22.793,13.702c-1.581-0.527-3.426-0.791-5.138-0.791c-9.486,0-17.128,7.642-17.128,17.128 c0,1.186,0.132,2.372,0.395,3.426C6.719,34.783,0,42.424,0,51.515C0,61.66,8.169,69.829,18.314,69.829h63.373 C91.831,69.829,100,61.66,100,51.515C99.868,42.556,93.281,35.046,84.717,33.597z" fill="#581656" transform="scale(1.0899999999999999)" style="transform:matrix(1.09, 0, 0, 1.09, 0, 0);animation-play-state:paused" ></path></g>
<g transform="matrix(1,0,0,1,690.7984619140625,192.88975524902344)" style="transform:matrix(1, 0, 0, 1, 690.798, 192.89);animation-play-state:paused" ><path d="M84.717,33.597c0.791-2.503,1.186-5.138,1.186-7.773C85.903,11.594,74.308,0,60.079,0 c-9.881,0-18.445,5.534-22.793,13.702c-1.581-0.527-3.426-0.791-5.138-0.791c-9.486,0-17.128,7.642-17.128,17.128 c0,1.186,0.132,2.372,0.395,3.426C6.719,34.783,0,42.424,0,51.515C0,61.66,8.169,69.829,18.314,69.829h63.373 C91.831,69.829,100,61.66,100,51.515C99.868,42.556,93.281,35.046,84.717,33.597z" fill="#a976c3" transform="scale(1.545)" style="transform:matrix(1.545, 0, 0, 1.545, 0, 0);animation-play-state:paused" ></path></g>
<g transform="matrix(1,0,0,1,1151.30419921875,1040.2047119140625)" style="transform:matrix(1, 0, 0, 1, 1151.3, 1040.2);animation-play-state:paused" ><path d="M84.717,33.597c0.791-2.503,1.186-5.138,1.186-7.773C85.903,11.594,74.308,0,60.079,0 c-9.881,0-18.445,5.534-22.793,13.702c-1.581-0.527-3.426-0.791-5.138-0.791c-9.486,0-17.128,7.642-17.128,17.128 c0,1.186,0.132,2.372,0.395,3.426C6.719,34.783,0,42.424,0,51.515C0,61.66,8.169,69.829,18.314,69.829h63.373 C91.831,69.829,100,61.66,100,51.515C99.868,42.556,93.281,35.046,84.717,33.597z" fill="#a976c3" transform="scale(1.545)" style="transform:matrix(1.545, 0, 0, 1.545, 0, 0);animation-play-state:paused" ></path></g>
<g transform="matrix(1,0,0,1,1290.41748046875,527.98583984375)" style="transform:matrix(1, 0, 0, 1, 1290.42, 527.986);animation-play-state:paused" ><path d="M84.717,33.597c0.791-2.503,1.186-5.138,1.186-7.773C85.903,11.594,74.308,0,60.079,0 c-9.881,0-18.445,5.534-22.793,13.702c-1.581-0.527-3.426-0.791-5.138-0.791c-9.486,0-17.128,7.642-17.128,17.128 c0,1.186,0.132,2.372,0.395,3.426C6.719,34.783,0,42.424,0,51.515C0,61.66,8.169,69.829,18.314,69.829h63.373 C91.831,69.829,100,61.66,100,51.515C99.868,42.556,93.281,35.046,84.717,33.597z" fill="#a976c3" transform="scale(1.545)" style="transform:matrix(1.545, 0, 0, 1.545, 0, 0);animation-play-state:paused" ></path></g>
<g transform="matrix(1,0,0,1,908.6580810546875,291.7381591796875)" style="transform:matrix(1, 0, 0, 1, 908.658, 291.738);animation-play-state:paused" ><path d="M84.717,33.597c0.791-2.503,1.186-5.138,1.186-7.773C85.903,11.594,74.308,0,60.079,0 c-9.881,0-18.445,5.534-22.793,13.702c-1.581-0.527-3.426-0.791-5.138-0.791c-9.486,0-17.128,7.642-17.128,17.128 c0,1.186,0.132,2.372,0.395,3.426C6.719,34.783,0,42.424,0,51.515C0,61.66,8.169,69.829,18.314,69.829h63.373 C91.831,69.829,100,61.66,100,51.515C99.868,42.556,93.281,35.046,84.717,33.597z" fill="#5f2a62" transform="scale(2)" style="transform:matrix(2, 0, 0, 2, 0, 0);animation-play-state:paused" ></path></g>
<g transform="matrix(1,0,0,1,730.9967041015625,810.67431640625)" style="transform:matrix(1, 0, 0, 1, 730.997, 810.674);animation-play-state:paused" ><path d="M84.717,33.597c0.791-2.503,1.186-5.138,1.186-7.773C85.903,11.594,74.308,0,60.079,0 c-9.881,0-18.445,5.534-22.793,13.702c-1.581-0.527-3.426-0.791-5.138-0.791c-9.486,0-17.128,7.642-17.128,17.128 c0,1.186,0.132,2.372,0.395,3.426C6.719,34.783,0,42.424,0,51.515C0,61.66,8.169,69.829,18.314,69.829h63.373 C91.831,69.829,100,61.66,100,51.515C99.868,42.556,93.281,35.046,84.717,33.597z" fill="#5f2a62" transform="scale(2)" style="transform:matrix(2, 0, 0, 2, 0, 0);animation-play-state:paused" ></path></g>
<g transform="matrix(1,0,0,1,938.3416748046875,188.21875)" style="transform:matrix(1, 0, 0, 1, 938.342, 188.219);animation-play-state:paused" ><path d="M84.717,33.597c0.791-2.503,1.186-5.138,1.186-7.773C85.903,11.594,74.308,0,60.079,0 c-9.881,0-18.445,5.534-22.793,13.702c-1.581-0.527-3.426-0.791-5.138-0.791c-9.486,0-17.128,7.642-17.128,17.128 c0,1.186,0.132,2.372,0.395,3.426C6.719,34.783,0,42.424,0,51.515C0,61.66,8.169,69.829,18.314,69.829h63.373 C91.831,69.829,100,61.66,100,51.515C99.868,42.556,93.281,35.046,84.717,33.597z" fill="#5f2a62" transform="scale(2)" style="transform:matrix(2, 0, 0, 2, 0, 0);animation-play-state:paused" ></path></g>
<g transform="matrix(1,0,0,1,627.8732299804688,581.1106567382812)" style="transform:matrix(1, 0, 0, 1, 627.873, 581.111);animation-play-state:paused" ><path d="M84.717,33.597c0.791-2.503,1.186-5.138,1.186-7.773C85.903,11.594,74.308,0,60.079,0 c-9.881,0-18.445,5.534-22.793,13.702c-1.581-0.527-3.426-0.791-5.138-0.791c-9.486,0-17.128,7.642-17.128,17.128 c0,1.186,0.132,2.372,0.395,3.426C6.719,34.783,0,42.424,0,51.515C0,61.66,8.169,69.829,18.314,69.829h63.373 C91.831,69.829,100,61.66,100,51.515C99.868,42.556,93.281,35.046,84.717,33.597z" fill="#5f2a62" transform="scale(2)" style="transform:matrix(2, 0, 0, 2, 0, 0);animation-play-state:paused" ></path></g></g></svg>