<?xml version="1.0" encoding="utf-8"?><svg xmlns="http://www.w3.org/2000/svg" xmlns:xlink="http://www.w3.org/1999/xlink" width="1366" height="1084" preserveAspectRatio="xMidYMid" viewBox="0 0 1366 1084" style="z-index:1;margin-right:-2px;display:block;background-color:rgb(241, 242, 243);animation-play-state:paused" ><g transform="translate(683,542) scale(1,1) translate(-683,-542)" style="transform:matrix(1, 0, 0, 1, 0, 0);animation-play-state:paused" ><g transform="matrix(1,0,0,1,585.5016479492188,120.74847412109375)" style="transform:matrix(1, 0, 0, 1, 585.502, 120.748);animation-play-state:paused" ><path d="M84.717,33.597c0.791-2.503,1.186-5.138,1.186-7.773C85.903,11.594,74.308,0,60.079,0 c-9.881,0-18.445,5.534-22.793,13.702c-1.581-0.527-3.426-0.791-5.138-0.791c-9.486,0-17.128,7.642-17.128,17.128 c0,1.186,0.132,2.372,0.395,3.426C6.719,34.783,0,42.424,0,51.515C0,61.66,8.169,69.829,18.314,69.829h63.373 C91.831,69.829,100,61.66,100,51.515C99.868,42.556,93.281,35.046,84.717,33.597z" fill="#3b4368" transform="scale(0.635)" style="transform:matrix(0.635, 0, 0, 0.635, 0, 0);animation-play-state:paused" ></path></g>
<g transform="matrix(1,0,0,1,-62.19114303588867,888.5562744140625)" style="transform:matrix(1, 0, 0, 1, -62.1911, 888.556);animation-play-state:paused" ><path d="M84.717,33.597c0.791-2.503,1.186-5.138,1.186-7.773C85.903,11.594,74.308,0,60.079,0 c-9.881,0-18.445,5.534-22.793,13.702c-1.581-0.527-3.426-0.791-5.138-0.791c-9.486,0-17.128,7.642-17.128,17.128 c0,1.186,0.132,2.372,0.395,3.426C6.719,34.783,0,42.424,0,51.515C0,61.66,8.169,69.829,18.314,69.829h63.373 C91.831,69.829,100,61.66,100,51.515C99.868,42.556,93.281,35.046,84.717,33.597z" fill="#3b4368" transform="scale(0.635)" style="transform:matrix(0.635, 0, 0, 0.635, 0, 0);animation-play-state:paused" ></path></g>
<g transform="matrix(1,0,0,1,576.460693359375,614.64453125)" style="transform:matrix(1, 0, 0, 1, 576.461, 614.645);animation-play-state:paused" ><path d="M84.717,33.597c0.791-2.503,1.186-5.138,1.186-7.773C85.903,11.594,74.308,0,60.079,0 c-9.881,0-18.445,5.534-22.793,13.702c-1.581-0.527-3.426-0.791-5.138-0.791c-9.486,0-17.128,7.642-17.128,17.128 c0,1.186,0.132,2.372,0.395,3.426C6.719,34.783,0,42.424,0,51.515C0,61.66,8.169,69.829,18.314,69.829h63.373 C91.831,69.829,100,61.66,100,51.515C99.868,42.556,93.281,35.046,84.717,33.597z" fill="#3b4368" transform="scale(0.635)" style="transform:matrix(0.635, 0, 0, 0.635, 0, 0);animation-play-state:paused" ></path></g>
<g transform="matrix(1,0,0,1,-44.31758117675781,732.236083984375)" style="transform:matrix(1, 0, 0, 1, -44.3176, 732.236);animation-play-state:paused" ><path d="M84.717,33.597c0.791-2.503,1.186-5.138,1.186-7.773C85.903,11.594,74.308,0,60.079,0 c-9.881,0-18.445,5.534-22.793,13.702c-1.581-0.527-3.426-0.791-5.138-0.791c-9.486,0-17.128,7.642-17.128,17.128 c0,1.186,0.132,2.372,0.395,3.426C6.719,34.783,0,42.424,0,51.515C0,61.66,8.169,69.829,18.314,69.829h63.373 C91.831,69.829,100,61.66,100,51.515C99.868,42.556,93.281,35.046,84.717,33.597z" fill="#3b4368" transform="scale(0.635)" style="transform:matrix(0.635, 0, 0, 0.635, 0, 0);animation-play-state:paused" ></path></g>
<g transform="matrix(1,0,0,1,1118.7825927734375,371.85723876953125)" style="transform:matrix(1, 0, 0, 1, 1118.78, 371.857);animation-play-state:paused" ><path d="M84.717,33.597c0.791-2.503,1.186-5.138,1.186-7.773C85.903,11.594,74.308,0,60.079,0 c-9.881,0-18.445,5.534-22.793,13.702c-1.581-0.527-3.426-0.791-5.138-0.791c-9.486,0-17.128,7.642-17.128,17.128 c0,1.186,0.132,2.372,0.395,3.426C6.719,34.783,0,42.424,0,51.515C0,61.66,8.169,69.829,18.314,69.829h63.373 C91.831,69.829,100,61.66,100,51.515C99.868,42.556,93.281,35.046,84.717,33.597z" fill="#3b4368" transform="scale(0.635)" style="transform:matrix(0.635, 0, 0, 0.635, 0, 0);animation-play-state:paused" ></path></g>
<g transform="matrix(1,0,0,1,836.5359497070312,1075.1553955078125)" style="transform:matrix(1, 0, 0, 1, 836.536, 1075.16);animation-play-state:paused" ><path d="M84.717,33.597c0.791-2.503,1.186-5.138,1.186-7.773C85.903,11.594,74.308,0,60.079,0 c-9.881,0-18.445,5.534-22.793,13.702c-1.581-0.527-3.426-0.791-5.138-0.791c-9.486,0-17.128,7.642-17.128,17.128 c0,1.186,0.132,2.372,0.395,3.426C6.719,34.783,0,42.424,0,51.515C0,61.66,8.169,69.829,18.314,69.829h63.373 C91.831,69.829,100,61.66,100,51.515C99.868,42.556,93.281,35.046,84.717,33.597z" fill="#3b4368" transform="scale(0.635)" style="transform:matrix(0.635, 0, 0, 0.635, 0, 0);animation-play-state:paused" ></path></g>
<g transform="matrix(1,0,0,1,738.0421752929688,871.9930419921875)" style="transform:matrix(1, 0, 0, 1, 738.042, 871.993);animation-play-state:paused" ><path d="M84.717,33.597c0.791-2.503,1.186-5.138,1.186-7.773C85.903,11.594,74.308,0,60.079,0 c-9.881,0-18.445,5.534-22.793,13.702c-1.581-0.527-3.426-0.791-5.138-0.791c-9.486,0-17.128,7.642-17.128,17.128 c0,1.186,0.132,2.372,0.395,3.426C6.719,34.783,0,42.424,0,51.515C0,61.66,8.169,69.829,18.314,69.829h63.373 C91.831,69.829,100,61.66,100,51.515C99.868,42.556,93.281,35.046,84.717,33.597z" fill="#3b4368" transform="scale(0.635)" style="transform:matrix(0.635, 0, 0, 0.635, 0, 0);animation-play-state:paused" ></path></g>
<g transform="matrix(1,0,0,1,43.48497009277344,1010.57763671875)" style="transform:matrix(1, 0, 0, 1, 43.485, 1010.58);animation-play-state:paused" ><path d="M84.717,33.597c0.791-2.503,1.186-5.138,1.186-7.773C85.903,11.594,74.308,0,60.079,0 c-9.881,0-18.445,5.534-22.793,13.702c-1.581-0.527-3.426-0.791-5.138-0.791c-9.486,0-17.128,7.642-17.128,17.128 c0,1.186,0.132,2.372,0.395,3.426C6.719,34.783,0,42.424,0,51.515C0,61.66,8.169,69.829,18.314,69.829h63.373 C91.831,69.829,100,61.66,100,51.515C99.868,42.556,93.281,35.046,84.717,33.597z" fill="#3b4368" transform="scale(0.635)" style="transform:matrix(0.635, 0, 0, 0.635, 0, 0);animation-play-state:paused" ></path></g>
<g transform="matrix(1,0,0,1,813.3814086914062,755.3751831054688)" style="transform:matrix(1, 0, 0, 1, 813.381, 755.375);animation-play-state:paused" ><path d="M84.717,33.597c0.791-2.503,1.186-5.138,1.186-7.773C85.903,11.594,74.308,0,60.079,0 c-9.881,0-18.445,5.534-22.793,13.702c-1.581-0.527-3.426-0.791-5.138-0.791c-9.486,0-17.128,7.642-17.128,17.128 c0,1.186,0.132,2.372,0.395,3.426C6.719,34.783,0,42.424,0,51.515C0,61.66,8.169,69.829,18.314,69.829h63.373 C91.831,69.829,100,61.66,100,51.515C99.868,42.556,93.281,35.046,84.717,33.597z" fill="#3b4368" transform="scale(0.635)" style="transform:matrix(0.635, 0, 0, 0.635, 0, 0);animation-play-state:paused" ></path></g>
<g transform="matrix(1,0,0,1,1048.2698974609375,838.4423217773438)" style="transform:matrix(1, 0, 0, 1, 1048.27, 838.442);animation-play-state:paused" ><path d="M84.717,33.597c0.791-2.503,1.186-5.138,1.186-7.773C85.903,11.594,74.308,0,60.079,0 c-9.881,0-18.445,5.534-22.793,13.702c-1.581-0.527-3.426-0.791-5.138-0.791c-9.486,0-17.128,7.642-17.128,17.128 c0,1.186,0.132,2.372,0.395,3.426C6.719,34.783,0,42.424,0,51.515C0,61.66,8.169,69.829,18.314,69.829h63.373 C91.831,69.829,100,61.66,100,51.515C99.868,42.556,93.281,35.046,84.717,33.597z" fill="#3b4368" transform="scale(0.635)" style="transform:matrix(0.635, 0, 0, 0.635, 0, 0);animation-play-state:paused" ></path></g>
<g transform="matrix(1,0,0,1,640.3759765625,688.4912109375)" style="transform:matrix(1, 0, 0, 1, 640.376, 688.491);animation-play-state:paused" ><path d="M84.717,33.597c0.791-2.503,1.186-5.138,1.186-7.773C85.903,11.594,74.308,0,60.079,0 c-9.881,0-18.445,5.534-22.793,13.702c-1.581-0.527-3.426-0.791-5.138-0.791c-9.486,0-17.128,7.642-17.128,17.128 c0,1.186,0.132,2.372,0.395,3.426C6.719,34.783,0,42.424,0,51.515C0,61.66,8.169,69.829,18.314,69.829h63.373 C91.831,69.829,100,61.66,100,51.515C99.868,42.556,93.281,35.046,84.717,33.597z" fill="#3b4368" transform="scale(0.635)" style="transform:matrix(0.635, 0, 0, 0.635, 0, 0);animation-play-state:paused" ></path></g>
<g transform="matrix(1,0,0,1,565.1049194335938,226.69432067871094)" style="transform:matrix(1, 0, 0, 1, 565.105, 226.694);animation-play-state:paused" ><path d="M84.717,33.597c0.791-2.503,1.186-5.138,1.186-7.773C85.903,11.594,74.308,0,60.079,0 c-9.881,0-18.445,5.534-22.793,13.702c-1.581-0.527-3.426-0.791-5.138-0.791c-9.486,0-17.128,7.642-17.128,17.128 c0,1.186,0.132,2.372,0.395,3.426C6.719,34.783,0,42.424,0,51.515C0,61.66,8.169,69.829,18.314,69.829h63.373 C91.831,69.829,100,61.66,100,51.515C99.868,42.556,93.281,35.046,84.717,33.597z" fill="#5e6fa3" transform="scale(1.0899999999999999)" style="transform:matrix(1.09, 0, 0, 1.09, 0, 0);animation-play-state:paused" ></path></g>
<g transform="matrix(1,0,0,1,178.59490966796875,1002.0176391601562)" style="transform:matrix(1, 0, 0, 1, 178.595, 1002.02);animation-play-state:paused" ><path d="M84.717,33.597c0.791-2.503,1.186-5.138,1.186-7.773C85.903,11.594,74.308,0,60.079,0 c-9.881,0-18.445,5.534-22.793,13.702c-1.581-0.527-3.426-0.791-5.138-0.791c-9.486,0-17.128,7.642-17.128,17.128 c0,1.186,0.132,2.372,0.395,3.426C6.719,34.783,0,42.424,0,51.515C0,61.66,8.169,69.829,18.314,69.829h63.373 C91.831,69.829,100,61.66,100,51.515C99.868,42.556,93.281,35.046,84.717,33.597z" fill="#5e6fa3" transform="scale(1.0899999999999999)" style="transform:matrix(1.09, 0, 0, 1.09, 0, 0);animation-play-state:paused" ></path></g>
<g transform="matrix(1,0,0,1,-41.77602005004883,743.7114868164062)" style="transform:matrix(1, 0, 0, 1, -41.776, 743.711);animation-play-state:paused" ><path d="M84.717,33.597c0.791-2.503,1.186-5.138,1.186-7.773C85.903,11.594,74.308,0,60.079,0 c-9.881,0-18.445,5.534-22.793,13.702c-1.581-0.527-3.426-0.791-5.138-0.791c-9.486,0-17.128,7.642-17.128,17.128 c0,1.186,0.132,2.372,0.395,3.426C6.719,34.783,0,42.424,0,51.515C0,61.66,8.169,69.829,18.314,69.829h63.373 C91.831,69.829,100,61.66,100,51.515C99.868,42.556,93.281,35.046,84.717,33.597z" fill="#5e6fa3" transform="scale(1.0899999999999999)" style="transform:matrix(1.09, 0, 0, 1.09, 0, 0);animation-play-state:paused" ></path></g>
<g transform="matrix(1,0,0,1,1320.8848876953125,96.33226776123047)" style="transform:matrix(1, 0, 0, 1, 1320.88, 96.3323);animation-play-state:paused" ><path d="M84.717,33.597c0.791-2.503,1.186-5.138,1.186-7.773C85.903,11.594,74.308,0,60.079,0 c-9.881,0-18.445,5.534-22.793,13.702c-1.581-0.527-3.426-0.791-5.138-0.791c-9.486,0-17.128,7.642-17.128,17.128 c0,1.186,0.132,2.372,0.395,3.426C6.719,34.783,0,42.424,0,51.515C0,61.66,8.169,69.829,18.314,69.829h63.373 C91.831,69.829,100,61.66,100,51.515C99.868,42.556,93.281,35.046,84.717,33.597z" fill="#5e6fa3" transform="scale(1.0899999999999999)" style="transform:matrix(1.09, 0, 0, 1.09, 0, 0);animation-play-state:paused" ></path></g>
<g transform="matrix(1,0,0,1,297.1135559082031,302.2808532714844)" style="transform:matrix(1, 0, 0, 1, 297.114, 302.281);animation-play-state:paused" ><path d="M84.717,33.597c0.791-2.503,1.186-5.138,1.186-7.773C85.903,11.594,74.308,0,60.079,0 c-9.881,0-18.445,5.534-22.793,13.702c-1.581-0.527-3.426-0.791-5.138-0.791c-9.486,0-17.128,7.642-17.128,17.128 c0,1.186,0.132,2.372,0.395,3.426C6.719,34.783,0,42.424,0,51.515C0,61.66,8.169,69.829,18.314,69.829h63.373 C91.831,69.829,100,61.66,100,51.515C99.868,42.556,93.281,35.046,84.717,33.597z" fill="#5e6fa3" transform="scale(1.0899999999999999)" style="transform:matrix(1.09, 0, 0, 1.09, 0, 0);animation-play-state:paused" ></path></g>
<g transform="matrix(1,0,0,1,63.56146240234375,718.8345947265625)" style="transform:matrix(1, 0, 0, 1, 63.5615, 718.835);animation-play-state:paused" ><path d="M84.717,33.597c0.791-2.503,1.186-5.138,1.186-7.773C85.903,11.594,74.308,0,60.079,0 c-9.881,0-18.445,5.534-22.793,13.702c-1.581-0.527-3.426-0.791-5.138-0.791c-9.486,0-17.128,7.642-17.128,17.128 c0,1.186,0.132,2.372,0.395,3.426C6.719,34.783,0,42.424,0,51.515C0,61.66,8.169,69.829,18.314,69.829h63.373 C91.831,69.829,100,61.66,100,51.515C99.868,42.556,93.281,35.046,84.717,33.597z" fill="#5e6fa3" transform="scale(1.0899999999999999)" style="transform:matrix(1.09, 0, 0, 1.09, 0, 0);animation-play-state:paused" ></path></g>
<g transform="matrix(1,0,0,1,1121.507568359375,864.510009765625)" style="transform:matrix(1, 0, 0, 1, 1121.51, 864.51);animation-play-state:paused" ><path d="M84.717,33.597c0.791-2.503,1.186-5.138,1.186-7.773C85.903,11.594,74.308,0,60.079,0 c-9.881,0-18.445,5.534-22.793,13.702c-1.581-0.527-3.426-0.791-5.138-0.791c-9.486,0-17.128,7.642-17.128,17.128 c0,1.186,0.132,2.372,0.395,3.426C6.719,34.783,0,42.424,0,51.515C0,61.66,8.169,69.829,18.314,69.829h63.373 C91.831,69.829,100,61.66,100,51.515C99.868,42.556,93.281,35.046,84.717,33.597z" fill="#5e6fa3" transform="scale(1.0899999999999999)" style="transform:matrix(1.09, 0, 0, 1.09, 0, 0);animation-play-state:paused" ></path></g>
<g transform="matrix(1,0,0,1,868.5675048828125,800.8790283203125)" style="transform:matrix(1, 0, 0, 1, 868.568, 800.879);animation-play-state:paused" ><path d="M84.717,33.597c0.791-2.503,1.186-5.138,1.186-7.773C85.903,11.594,74.308,0,60.079,0 c-9.881,0-18.445,5.534-22.793,13.702c-1.581-0.527-3.426-0.791-5.138-0.791c-9.486,0-17.128,7.642-17.128,17.128 c0,1.186,0.132,2.372,0.395,3.426C6.719,34.783,0,42.424,0,51.515C0,61.66,8.169,69.829,18.314,69.829h63.373 C91.831,69.829,100,61.66,100,51.515C99.868,42.556,93.281,35.046,84.717,33.597z" fill="#5e6fa3" transform="scale(1.0899999999999999)" style="transform:matrix(1.09, 0, 0, 1.09, 0, 0);animation-play-state:paused" ></path></g>
<g transform="matrix(1,0,0,1,452.61956787109375,110.58753967285156)" style="transform:matrix(1, 0, 0, 1, 452.62, 110.588);animation-play-state:paused" ><path d="M84.717,33.597c0.791-2.503,1.186-5.138,1.186-7.773C85.903,11.594,74.308,0,60.079,0 c-9.881,0-18.445,5.534-22.793,13.702c-1.581-0.527-3.426-0.791-5.138-0.791c-9.486,0-17.128,7.642-17.128,17.128 c0,1.186,0.132,2.372,0.395,3.426C6.719,34.783,0,42.424,0,51.515C0,61.66,8.169,69.829,18.314,69.829h63.373 C91.831,69.829,100,61.66,100,51.515C99.868,42.556,93.281,35.046,84.717,33.597z" fill="#5e6fa3" transform="scale(1.0899999999999999)" style="transform:matrix(1.09, 0, 0, 1.09, 0, 0);animation-play-state:paused" ></path></g>
<g transform="matrix(1,0,0,1,187.7603759765625,310.3489074707031)" style="transform:matrix(1, 0, 0, 1, 187.76, 310.349);animation-play-state:paused" ><path d="M84.717,33.597c0.791-2.503,1.186-5.138,1.186-7.773C85.903,11.594,74.308,0,60.079,0 c-9.881,0-18.445,5.534-22.793,13.702c-1.581-0.527-3.426-0.791-5.138-0.791c-9.486,0-17.128,7.642-17.128,17.128 c0,1.186,0.132,2.372,0.395,3.426C6.719,34.783,0,42.424,0,51.515C0,61.66,8.169,69.829,18.314,69.829h63.373 C91.831,69.829,100,61.66,100,51.515C99.868,42.556,93.281,35.046,84.717,33.597z" fill="#5e6fa3" transform="scale(1.0899999999999999)" style="transform:matrix(1.09, 0, 0, 1.09, 0, 0);animation-play-state:paused" ></path></g>
<g transform="matrix(1,0,0,1,-96.35585021972656,924.6138305664062)" style="transform:matrix(1, 0, 0, 1, -96.3559, 924.614);animation-play-state:paused" ><path d="M84.717,33.597c0.791-2.503,1.186-5.138,1.186-7.773C85.903,11.594,74.308,0,60.079,0 c-9.881,0-18.445,5.534-22.793,13.702c-1.581-0.527-3.426-0.791-5.138-0.791c-9.486,0-17.128,7.642-17.128,17.128 c0,1.186,0.132,2.372,0.395,3.426C6.719,34.783,0,42.424,0,51.515C0,61.66,8.169,69.829,18.314,69.829h63.373 C91.831,69.829,100,61.66,100,51.515C99.868,42.556,93.281,35.046,84.717,33.597z" fill="#5e6fa3" transform="scale(1.0899999999999999)" style="transform:matrix(1.09, 0, 0, 1.09, 0, 0);animation-play-state:paused" ></path></g>
<g transform="matrix(1,0,0,1,1305.12744140625,500.42913818359375)" style="transform:matrix(1, 0, 0, 1, 1305.13, 500.429);animation-play-state:paused" ><path d="M84.717,33.597c0.791-2.503,1.186-5.138,1.186-7.773C85.903,11.594,74.308,0,60.079,0 c-9.881,0-18.445,5.534-22.793,13.702c-1.581-0.527-3.426-0.791-5.138-0.791c-9.486,0-17.128,7.642-17.128,17.128 c0,1.186,0.132,2.372,0.395,3.426C6.719,34.783,0,42.424,0,51.515C0,61.66,8.169,69.829,18.314,69.829h63.373 C91.831,69.829,100,61.66,100,51.515C99.868,42.556,93.281,35.046,84.717,33.597z" fill="#689cc5" transform="scale(1.545)" style="transform:matrix(1.545, 0, 0, 1.545, 0, 0);animation-play-state:paused" ></path></g>
<g transform="matrix(1,0,0,1,84.15303039550781,615.0225830078125)" style="transform:matrix(1, 0, 0, 1, 84.153, 615.023);animation-play-state:paused" ><path d="M84.717,33.597c0.791-2.503,1.186-5.138,1.186-7.773C85.903,11.594,74.308,0,60.079,0 c-9.881,0-18.445,5.534-22.793,13.702c-1.581-0.527-3.426-0.791-5.138-0.791c-9.486,0-17.128,7.642-17.128,17.128 c0,1.186,0.132,2.372,0.395,3.426C6.719,34.783,0,42.424,0,51.515C0,61.66,8.169,69.829,18.314,69.829h63.373 C91.831,69.829,100,61.66,100,51.515C99.868,42.556,93.281,35.046,84.717,33.597z" fill="#689cc5" transform="scale(1.545)" style="transform:matrix(1.545, 0, 0, 1.545, 0, 0);animation-play-state:paused" ></path></g>
<g transform="matrix(1,0,0,1,132.0721893310547,90.51698303222656)" style="transform:matrix(1, 0, 0, 1, 132.072, 90.517);animation-play-state:paused" ><path d="M84.717,33.597c0.791-2.503,1.186-5.138,1.186-7.773C85.903,11.594,74.308,0,60.079,0 c-9.881,0-18.445,5.534-22.793,13.702c-1.581-0.527-3.426-0.791-5.138-0.791c-9.486,0-17.128,7.642-17.128,17.128 c0,1.186,0.132,2.372,0.395,3.426C6.719,34.783,0,42.424,0,51.515C0,61.66,8.169,69.829,18.314,69.829h63.373 C91.831,69.829,100,61.66,100,51.515C99.868,42.556,93.281,35.046,84.717,33.597z" fill="#689cc5" transform="scale(1.545)" style="transform:matrix(1.545, 0, 0, 1.545, 0, 0);animation-play-state:paused" ></path></g>
<g transform="matrix(1,0,0,1,156.38827514648438,47.71443176269531)" style="transform:matrix(1, 0, 0, 1, 156.388, 47.7144);animation-play-state:paused" ><path d="M84.717,33.597c0.791-2.503,1.186-5.138,1.186-7.773C85.903,11.594,74.308,0,60.079,0 c-9.881,0-18.445,5.534-22.793,13.702c-1.581-0.527-3.426-0.791-5.138-0.791c-9.486,0-17.128,7.642-17.128,17.128 c0,1.186,0.132,2.372,0.395,3.426C6.719,34.783,0,42.424,0,51.515C0,61.66,8.169,69.829,18.314,69.829h63.373 C91.831,69.829,100,61.66,100,51.515C99.868,42.556,93.281,35.046,84.717,33.597z" fill="#689cc5" transform="scale(1.545)" style="transform:matrix(1.545, 0, 0, 1.545, 0, 0);animation-play-state:paused" ></path></g>
<g transform="matrix(1,0,0,1,379.5586242675781,880.7960815429688)" style="transform:matrix(1, 0, 0, 1, 379.559, 880.796);animation-play-state:paused" ><path d="M84.717,33.597c0.791-2.503,1.186-5.138,1.186-7.773C85.903,11.594,74.308,0,60.079,0 c-9.881,0-18.445,5.534-22.793,13.702c-1.581-0.527-3.426-0.791-5.138-0.791c-9.486,0-17.128,7.642-17.128,17.128 c0,1.186,0.132,2.372,0.395,3.426C6.719,34.783,0,42.424,0,51.515C0,61.66,8.169,69.829,18.314,69.829h63.373 C91.831,69.829,100,61.66,100,51.515C99.868,42.556,93.281,35.046,84.717,33.597z" fill="#689cc5" transform="scale(1.545)" style="transform:matrix(1.545, 0, 0, 1.545, 0, 0);animation-play-state:paused" ></path></g>
<g transform="matrix(1,0,0,1,772.0535888671875,736.267822265625)" style="transform:matrix(1, 0, 0, 1, 772.054, 736.268);animation-play-state:paused" ><path d="M84.717,33.597c0.791-2.503,1.186-5.138,1.186-7.773C85.903,11.594,74.308,0,60.079,0 c-9.881,0-18.445,5.534-22.793,13.702c-1.581-0.527-3.426-0.791-5.138-0.791c-9.486,0-17.128,7.642-17.128,17.128 c0,1.186,0.132,2.372,0.395,3.426C6.719,34.783,0,42.424,0,51.515C0,61.66,8.169,69.829,18.314,69.829h63.373 C91.831,69.829,100,61.66,100,51.515C99.868,42.556,93.281,35.046,84.717,33.597z" fill="#689cc5" transform="scale(1.545)" style="transform:matrix(1.545, 0, 0, 1.545, 0, 0);animation-play-state:paused" ></path></g>
<g transform="matrix(1,0,0,1,383.3749694824219,619.2948608398438)" style="transform:matrix(1, 0, 0, 1, 383.375, 619.295);animation-play-state:paused" ><path d="M84.717,33.597c0.791-2.503,1.186-5.138,1.186-7.773C85.903,11.594,74.308,0,60.079,0 c-9.881,0-18.445,5.534-22.793,13.702c-1.581-0.527-3.426-0.791-5.138-0.791c-9.486,0-17.128,7.642-17.128,17.128 c0,1.186,0.132,2.372,0.395,3.426C6.719,34.783,0,42.424,0,51.515C0,61.66,8.169,69.829,18.314,69.829h63.373 C91.831,69.829,100,61.66,100,51.515C99.868,42.556,93.281,35.046,84.717,33.597z" fill="#689cc5" transform="scale(1.545)" style="transform:matrix(1.545, 0, 0, 1.545, 0, 0);animation-play-state:paused" ></path></g>
<g transform="matrix(1,0,0,1,1071.732666015625,178.30889892578125)" style="transform:matrix(1, 0, 0, 1, 1071.73, 178.309);animation-play-state:paused" ><path d="M84.717,33.597c0.791-2.503,1.186-5.138,1.186-7.773C85.903,11.594,74.308,0,60.079,0 c-9.881,0-18.445,5.534-22.793,13.702c-1.581-0.527-3.426-0.791-5.138-0.791c-9.486,0-17.128,7.642-17.128,17.128 c0,1.186,0.132,2.372,0.395,3.426C6.719,34.783,0,42.424,0,51.515C0,61.66,8.169,69.829,18.314,69.829h63.373 C91.831,69.829,100,61.66,100,51.515C99.868,42.556,93.281,35.046,84.717,33.597z" fill="#689cc5" transform="scale(1.545)" style="transform:matrix(1.545, 0, 0, 1.545, 0, 0);animation-play-state:paused" ></path></g>
<g transform="matrix(1,0,0,1,-30.676048278808594,226.34573364257812)" style="transform:matrix(1, 0, 0, 1, -30.676, 226.346);animation-play-state:paused" ><path d="M84.717,33.597c0.791-2.503,1.186-5.138,1.186-7.773C85.903,11.594,74.308,0,60.079,0 c-9.881,0-18.445,5.534-22.793,13.702c-1.581-0.527-3.426-0.791-5.138-0.791c-9.486,0-17.128,7.642-17.128,17.128 c0,1.186,0.132,2.372,0.395,3.426C6.719,34.783,0,42.424,0,51.515C0,61.66,8.169,69.829,18.314,69.829h63.373 C91.831,69.829,100,61.66,100,51.515C99.868,42.556,93.281,35.046,84.717,33.597z" fill="#689cc5" transform="scale(1.545)" style="transform:matrix(1.545, 0, 0, 1.545, 0, 0);animation-play-state:paused" ></path></g>
<g transform="matrix(1,0,0,1,1010.70849609375,1018.3662719726562)" style="transform:matrix(1, 0, 0, 1, 1010.71, 1018.37);animation-play-state:paused" ><path d="M84.717,33.597c0.791-2.503,1.186-5.138,1.186-7.773C85.903,11.594,74.308,0,60.079,0 c-9.881,0-18.445,5.534-22.793,13.702c-1.581-0.527-3.426-0.791-5.138-0.791c-9.486,0-17.128,7.642-17.128,17.128 c0,1.186,0.132,2.372,0.395,3.426C6.719,34.783,0,42.424,0,51.515C0,61.66,8.169,69.829,18.314,69.829h63.373 C91.831,69.829,100,61.66,100,51.515C99.868,42.556,93.281,35.046,84.717,33.597z" fill="#689cc5" transform="scale(1.545)" style="transform:matrix(1.545, 0, 0, 1.545, 0, 0);animation-play-state:paused" ></path></g>
<g transform="matrix(1,0,0,1,159.63858032226562,530.2914428710938)" style="transform:matrix(1, 0, 0, 1, 159.639, 530.291);animation-play-state:paused" ><path d="M84.717,33.597c0.791-2.503,1.186-5.138,1.186-7.773C85.903,11.594,74.308,0,60.079,0 c-9.881,0-18.445,5.534-22.793,13.702c-1.581-0.527-3.426-0.791-5.138-0.791c-9.486,0-17.128,7.642-17.128,17.128 c0,1.186,0.132,2.372,0.395,3.426C6.719,34.783,0,42.424,0,51.515C0,61.66,8.169,69.829,18.314,69.829h63.373 C91.831,69.829,100,61.66,100,51.515C99.868,42.556,93.281,35.046,84.717,33.597z" fill="#689cc5" transform="scale(1.545)" style="transform:matrix(1.545, 0, 0, 1.545, 0, 0);animation-play-state:paused" ></path></g>
<g transform="matrix(1,0,0,1,539.9827270507812,843.81103515625)" style="transform:matrix(1, 0, 0, 1, 539.983, 843.811);animation-play-state:paused" ><path d="M84.717,33.597c0.791-2.503,1.186-5.138,1.186-7.773C85.903,11.594,74.308,0,60.079,0 c-9.881,0-18.445,5.534-22.793,13.702c-1.581-0.527-3.426-0.791-5.138-0.791c-9.486,0-17.128,7.642-17.128,17.128 c0,1.186,0.132,2.372,0.395,3.426C6.719,34.783,0,42.424,0,51.515C0,61.66,8.169,69.829,18.314,69.829h63.373 C91.831,69.829,100,61.66,100,51.515C99.868,42.556,93.281,35.046,84.717,33.597z" fill="#93dbe9" transform="scale(2)" style="transform:matrix(2, 0, 0, 2, 0, 0);animation-play-state:paused" ></path></g>
<g transform="matrix(1,0,0,1,14.112251281738281,462.1501159667969)" style="transform:matrix(1, 0, 0, 1, 14.1123, 462.15);animation-play-state:paused" ><path d="M84.717,33.597c0.791-2.503,1.186-5.138,1.186-7.773C85.903,11.594,74.308,0,60.079,0 c-9.881,0-18.445,5.534-22.793,13.702c-1.581-0.527-3.426-0.791-5.138-0.791c-9.486,0-17.128,7.642-17.128,17.128 c0,1.186,0.132,2.372,0.395,3.426C6.719,34.783,0,42.424,0,51.515C0,61.66,8.169,69.829,18.314,69.829h63.373 C91.831,69.829,100,61.66,100,51.515C99.868,42.556,93.281,35.046,84.717,33.597z" fill="#93dbe9" transform="scale(2)" style="transform:matrix(2, 0, 0, 2, 0, 0);animation-play-state:paused" ></path></g>
<g transform="matrix(1,0,0,1,1021.191650390625,626.1463012695312)" style="transform:matrix(1, 0, 0, 1, 1021.19, 626.146);animation-play-state:paused" ><path d="M84.717,33.597c0.791-2.503,1.186-5.138,1.186-7.773C85.903,11.594,74.308,0,60.079,0 c-9.881,0-18.445,5.534-22.793,13.702c-1.581-0.527-3.426-0.791-5.138-0.791c-9.486,0-17.128,7.642-17.128,17.128 c0,1.186,0.132,2.372,0.395,3.426C6.719,34.783,0,42.424,0,51.515C0,61.66,8.169,69.829,18.314,69.829h63.373 C91.831,69.829,100,61.66,100,51.515C99.868,42.556,93.281,35.046,84.717,33.597z" fill="#93dbe9" transform="scale(2)" style="transform:matrix(2, 0, 0, 2, 0, 0);animation-play-state:paused" ></path></g>
<g transform="matrix(1,0,0,1,938.6966552734375,789.4031982421875)" style="transform:matrix(1, 0, 0, 1, 938.697, 789.403);animation-play-state:paused" ><path d="M84.717,33.597c0.791-2.503,1.186-5.138,1.186-7.773C85.903,11.594,74.308,0,60.079,0 c-9.881,0-18.445,5.534-22.793,13.702c-1.581-0.527-3.426-0.791-5.138-0.791c-9.486,0-17.128,7.642-17.128,17.128 c0,1.186,0.132,2.372,0.395,3.426C6.719,34.783,0,42.424,0,51.515C0,61.66,8.169,69.829,18.314,69.829h63.373 C91.831,69.829,100,61.66,100,51.515C99.868,42.556,93.281,35.046,84.717,33.597z" fill="#93dbe9" transform="scale(2)" style="transform:matrix(2, 0, 0, 2, 0, 0);animation-play-state:paused" ></path></g>
<g transform="matrix(1,0,0,1,1056.288330078125,64.01983642578125)" style="transform:matrix(1, 0, 0, 1, 1056.29, 64.0198);animation-play-state:paused" ><path d="M84.717,33.597c0.791-2.503,1.186-5.138,1.186-7.773C85.903,11.594,74.308,0,60.079,0 c-9.881,0-18.445,5.534-22.793,13.702c-1.581-0.527-3.426-0.791-5.138-0.791c-9.486,0-17.128,7.642-17.128,17.128 c0,1.186,0.132,2.372,0.395,3.426C6.719,34.783,0,42.424,0,51.515C0,61.66,8.169,69.829,18.314,69.829h63.373 C91.831,69.829,100,61.66,100,51.515C99.868,42.556,93.281,35.046,84.717,33.597z" fill="#93dbe9" transform="scale(2)" style="transform:matrix(2, 0, 0, 2, 0, 0);animation-play-state:paused" ></path></g>
<g transform="matrix(1,0,0,1,107.708984375,237.26718139648438)" style="transform:matrix(1, 0, 0, 1, 107.709, 237.267);animation-play-state:paused" ><path d="M84.717,33.597c0.791-2.503,1.186-5.138,1.186-7.773C85.903,11.594,74.308,0,60.079,0 c-9.881,0-18.445,5.534-22.793,13.702c-1.581-0.527-3.426-0.791-5.138-0.791c-9.486,0-17.128,7.642-17.128,17.128 c0,1.186,0.132,2.372,0.395,3.426C6.719,34.783,0,42.424,0,51.515C0,61.66,8.169,69.829,18.314,69.829h63.373 C91.831,69.829,100,61.66,100,51.515C99.868,42.556,93.281,35.046,84.717,33.597z" fill="#93dbe9" transform="scale(2)" style="transform:matrix(2, 0, 0, 2, 0, 0);animation-play-state:paused" ></path></g>
<g transform="matrix(1,0,0,1,73.90936279296875,919.5620727539062)" style="transform:matrix(1, 0, 0, 1, 73.9094, 919.562);animation-play-state:paused" ><path d="M84.717,33.597c0.791-2.503,1.186-5.138,1.186-7.773C85.903,11.594,74.308,0,60.079,0 c-9.881,0-18.445,5.534-22.793,13.702c-1.581-0.527-3.426-0.791-5.138-0.791c-9.486,0-17.128,7.642-17.128,17.128 c0,1.186,0.132,2.372,0.395,3.426C6.719,34.783,0,42.424,0,51.515C0,61.66,8.169,69.829,18.314,69.829h63.373 C91.831,69.829,100,61.66,100,51.515C99.868,42.556,93.281,35.046,84.717,33.597z" fill="#93dbe9" transform="scale(2)" style="transform:matrix(2, 0, 0, 2, 0, 0);animation-play-state:paused" ></path></g>
<g transform="matrix(1,0,0,1,1308.2357177734375,105.82414245605469)" style="transform:matrix(1, 0, 0, 1, 1308.24, 105.824);animation-play-state:paused" ><path d="M84.717,33.597c0.791-2.503,1.186-5.138,1.186-7.773C85.903,11.594,74.308,0,60.079,0 c-9.881,0-18.445,5.534-22.793,13.702c-1.581-0.527-3.426-0.791-5.138-0.791c-9.486,0-17.128,7.642-17.128,17.128 c0,1.186,0.132,2.372,0.395,3.426C6.719,34.783,0,42.424,0,51.515C0,61.66,8.169,69.829,18.314,69.829h63.373 C91.831,69.829,100,61.66,100,51.515C99.868,42.556,93.281,35.046,84.717,33.597z" fill="#93dbe9" transform="scale(2)" style="transform:matrix(2, 0, 0, 2, 0, 0);animation-play-state:paused" ></path></g>
<g transform="matrix(1,0,0,1,1093.617919921875,644.49609375)" style="transform:matrix(1, 0, 0, 1, 1093.62, 644.496);animation-play-state:paused" ><path d="M84.717,33.597c0.791-2.503,1.186-5.138,1.186-7.773C85.903,11.594,74.308,0,60.079,0 c-9.881,0-18.445,5.534-22.793,13.702c-1.581-0.527-3.426-0.791-5.138-0.791c-9.486,0-17.128,7.642-17.128,17.128 c0,1.186,0.132,2.372,0.395,3.426C6.719,34.783,0,42.424,0,51.515C0,61.66,8.169,69.829,18.314,69.829h63.373 C91.831,69.829,100,61.66,100,51.515C99.868,42.556,93.281,35.046,84.717,33.597z" fill="#93dbe9" transform="scale(2)" style="transform:matrix(2, 0, 0, 2, 0, 0);animation-play-state:paused" ></path></g>
<g transform="matrix(1,0,0,1,363.8135070800781,775.709228515625)" style="transform:matrix(1, 0, 0, 1, 363.814, 775.709);animation-play-state:paused" ><path d="M84.717,33.597c0.791-2.503,1.186-5.138,1.186-7.773C85.903,11.594,74.308,0,60.079,0 c-9.881,0-18.445,5.534-22.793,13.702c-1.581-0.527-3.426-0.791-5.138-0.791c-9.486,0-17.128,7.642-17.128,17.128 c0,1.186,0.132,2.372,0.395,3.426C6.719,34.783,0,42.424,0,51.515C0,61.66,8.169,69.829,18.314,69.829h63.373 C91.831,69.829,100,61.66,100,51.515C99.868,42.556,93.281,35.046,84.717,33.597z" fill="#93dbe9" transform="scale(2)" style="transform:matrix(2, 0, 0, 2, 0, 0);animation-play-state:paused" ></path></g>
<g transform="matrix(1,0,0,1,228.24688720703125,520.3701171875)" style="transform:matrix(1, 0, 0, 1, 228.247, 520.37);animation-play-state:paused" ><path d="M84.717,33.597c0.791-2.503,1.186-5.138,1.186-7.773C85.903,11.594,74.308,0,60.079,0 c-9.881,0-18.445,5.534-22.793,13.702c-1.581-0.527-3.426-0.791-5.138-0.791c-9.486,0-17.128,7.642-17.128,17.128 c0,1.186,0.132,2.372,0.395,3.426C6.719,34.783,0,42.424,0,51.515C0,61.66,8.169,69.829,18.314,69.829h63.373 C91.831,69.829,100,61.66,100,51.515C99.868,42.556,93.281,35.046,84.717,33.597z" fill="#93dbe9" transform="scale(2)" style="transform:matrix(2, 0, 0, 2, 0, 0);animation-play-state:paused" ></path></g>
<g transform="matrix(1,0,0,1,771.7948608398438,117.05860137939453)" style="transform:matrix(1, 0, 0, 1, 771.795, 117.059);animation-play-state:paused" ><path d="M84.717,33.597c0.791-2.503,1.186-5.138,1.186-7.773C85.903,11.594,74.308,0,60.079,0 c-9.881,0-18.445,5.534-22.793,13.702c-1.581-0.527-3.426-0.791-5.138-0.791c-9.486,0-17.128,7.642-17.128,17.128 c0,1.186,0.132,2.372,0.395,3.426C6.719,34.783,0,42.424,0,51.515C0,61.66,8.169,69.829,18.314,69.829h63.373 C91.831,69.829,100,61.66,100,51.515C99.868,42.556,93.281,35.046,84.717,33.597z" fill="#93dbe9" transform="scale(2)" style="transform:matrix(2, 0, 0, 2, 0, 0);animation-play-state:paused" ></path></g></g></svg>